# xmcd CD database file
#
# Track frame offsets:
#	150
#	14177
#	30086
#	47454
#	61899
#	81354
#	96334
#	111683
#	126596
#	144358
#	157746
#	175335
#
# Disc length: 2527 seconds
#
# Revision: 4
# Processed by: cddbd v1.5.2PL0 Copyright (c) Steve Scherf et al.
# Submitted via: CDex 1.72
#
DISCID=a009dd0c
DTITLE=Caril, Hayes (USA-11-KMAG YOYO-alt.rck) - KMAG YOYO
DYEAR=2011
DGENRE=Alt. Rock
TTITLE0=Stomp And Holler
TTITLE1=Hard Out Here
TTITLE2=Chances Are
TTITLE3=Grand Parade
TTITLE4=KMAG YOYO
TTITLE5=Another Like You
TTITLE6=The Letter
TTITLE7=Bye Bye Baby
TTITLE8=The Lovin' Cup
TTITLE9=Bottle In My Hand
TTITLE10=Grateful For Christmas
TTITLE11=Hide Me
EXTD=YEAR: 2011
EXTT0=
EXTT1=
EXTT2=
EXTT3=
EXTT4=
EXTT5=
EXTT6=
EXTT7=
EXTT8=
EXTT9=
EXTT10=
EXTT11=
PLAYORDER=
